# xmcd
#
# Track frame offsets:
#	150
#	7596
#	25397
#	45884
#	62399
#	84314
#	99858
#	117563
#	134905
#	158203
#	165851
#
# Disc length: 2339 seconds
#
# Revision: 2
# Processed by: cddbd v1.4PL0 Copyright (c) Steve Scherf et al.
# Submitted via: EasyCDDAExtractor 5.0.6
#
DISCID=7409210b
DTITLE=G. Love and Special Sauce - Has Gone Country
DYEAR=1998
DGENRE=Rap
TTITLE0=Gone For A Spell
TTITLE1=Wild Child
TTITLE2=Paper Boy
TTITLE3=Sweet Home Rollin'
TTITLE4=Keep On
TTITLE5=Get Goin'
TTITLE6=Everybody
TTITLE7=Never Home
TTITLE8=Sunny Side of Money
TTITLE9=Let's Go See a Movie
TTITLE10=Roadside Trips
EXTD=
EXTT0=
EXTT1=
EXTT2=
EXTT3=
EXTT4=
EXTT5=
EXTT6=
EXTT7=
EXTT8=
EXTT9=
EXTT10=
PLAYORDER=
